# xmcd
#
# Track frame offsets: 
#        150
#        11215
#        20392
#        36120
#        50265
#        62485
#        74725
#        86535
#        100805
#        114327
#        127635
#        146862
#
# Disc length: 1998 seconds
#
# Revision: 0
# Processed by: cddbd v1.5.2PL0 Copyright (c) Steve Scherf et al.
# Submitted via: ExactAudioCopy v0.99pb3
#
DISCID=9c07cc0c
DTITLE=tunos - tunas
DYEAR=1900
DGENRE=tunas
TTITLE0=clavelitos
TTITLE1=a españa
TTITLE2=islas canarias
TTITLE3=la morena de mi copla
TTITLE4=las cintas de mi capa
TTITLE5=los ejes de mi carreta
TTITLE6=mi japa
TTITLE7=morucha
TTITLE8=ojos de españa
TTITLE9=que nadie sepa mi sufrir
TTITLE10=si vas a calatayud
TTITLE11=suspiros de españa
EXTD=
EXTT0=
EXTT1=
EXTT2=
EXTT3=
EXTT4=
EXTT5=
EXTT6=
EXTT7=
EXTT8=
EXTT9=
EXTT10=
EXTT11=
PLAYORDER=
